<?xml version="1.0" encoding="utf-8"?>
<!-- Generator: Adobe Illustrator 24.1.2, SVG Export Plug-In . SVG Version: 6.00 Build 0)  -->
<svg version="1.1" id="Capa_1" xmlns="http://www.w3.org/2000/svg" xmlns:xlink="http://www.w3.org/1999/xlink" x="0px" y="0px"
	 viewBox="0 0 1024 1024" style="enable-background:new 0 0 1024 1024;" xml:space="preserve">
<style type="text/css">
	.st0{fill:#FFC107;}
</style>
<g id="icomoon-ignore">
</g>
<path class="st0" d="M448,722.6c0,7.1,5.7,12.8,12.8,12.8h102.4c0,0,0.1,0,0.1,0c3.6,0,6.8-1.5,9.1-3.8l0,0c2.2-2.2,3.5-5.3,3.5-8.7
	c0-0.1,0-0.2,0-0.3v0v-2.9H448L448,722.6z"/>
<path class="st0" d="M448,691.5h128.3v15.7H448V691.5z"/>
<path class="st0" d="M499.2,755.5h25.6c0.1,0,0.2,0,0.4,0c3.4,0,6.5-1.5,8.6-3.8l0,0c1.1-0.9,2-2.1,2.5-3.5l0-0.1h-48.6
	c2,4.4,6.3,7.4,11.4,7.4C499.1,755.5,499.2,755.5,499.2,755.5L499.2,755.5L499.2,755.5z"/>
<path class="st0" d="M512,32C246.9,32,32,246.9,32,512s214.9,480,480,480s480-214.9,480-480l0,0C992,246.9,777.1,32,512,32L512,32z
	 M618.2,593.9c-17.9,12.9-29.4,33.6-29.4,57.1c0,0.1,0,0.1,0,0.2v0v71.4c0,0,0,0.1,0,0.1c0,7-2.8,13.4-7.4,18.1l0,0
	c-4.6,4.5-10.9,7.4-17.8,7.4c-0.1,0-0.3,0-0.4,0h-13.4c-1,5-3.4,9.4-6.7,12.8l0,0c-4.7,4.6-11.1,7.4-18.1,7.4c-0.1,0-0.1,0-0.2,0
	h-25.6c-12.2,0-22.4-8.6-24.9-20l0-0.2h-13.4c-14.1,0-25.6-11.5-25.6-25.6l0,0v-71.4c-0.2-23.9-12.1-44.9-30.2-57.8l-0.2-0.1
	c-45.9-34.2-75.4-88.4-75.4-149.5c0-102.7,83.2-185.9,185.9-185.9c47.7,0,91.3,18,124.2,47.6l-0.2-0.2c36.1,34,58.5,82.1,58.5,135.4
	c0,62.9-31.3,118.5-79.1,152.2l-0.6,0.4L618.2,593.9z"/>
<path class="st0" d="M448,663h128.3v15.7H448V663z"/>
<path class="st0" d="M500.8,268.8c-85.7,6.3-153.7,74.3-160,159.4l0,0.6c-0.3,4-0.5,8.7-0.5,13.4c0,57.8,28.7,108.9,72.6,139.8
	l0.5,0.4c20.9,15.5,34.4,40.1,34.6,67.8v0h128c0.2-27.5,13.8-51.8,34.6-66.7l0.2-0.2c45-31.6,74.1-83.3,74.2-141.7v0
	c-0.2-95.7-77.8-173.1-173.4-173.1c-3.8,0-7.6,0.1-11.4,0.4L500.8,268.8L500.8,268.8z"/>
</svg>
