<?xml version="1.0" encoding="utf-8"?>
<!-- Generator: Adobe Illustrator 25.2.1, SVG Export Plug-In . SVG Version: 6.00 Build 0)  -->
<svg version="1.1" id="Capa_1" xmlns="http://www.w3.org/2000/svg" xmlns:xlink="http://www.w3.org/1999/xlink" x="0px" y="0px"
	 viewBox="0 0 15 14" style="enable-background:new 0 0 15 14;" xml:space="preserve">
<style type="text/css">
	.st0{fill:#00A1C9;stroke:#686868;stroke-width:0.8;stroke-miterlimit:10;}
	.st1{fill:#FFFFFF;stroke:#686868;stroke-width:0.8;stroke-miterlimit:10;}
	.st2{fill:#686868;}
</style>
<g>
	<path class="st0" d="M14.2,5.6c0,0.5-0.2,1-0.6,1.4l-2.4,2.4L5.4,3.5l2.4-2.4c0.7-0.7,2-0.7,2.7,0l3.1,3.1
		C14,4.6,14.2,5.1,14.2,5.6z"/>
	<path class="st1" d="M11.2,9.4l-2.9,2.9H3l-1.8-1.8c-0.4-0.4-0.6-0.8-0.6-1.4c0-0.5,0.2-1,0.6-1.4l4.2-4.2L11.2,9.4z"/>
	<path class="st2" d="M13.5,13.4H0.8c-0.3,0-0.5-0.2-0.5-0.5c0-0.3,0.2-0.5,0.5-0.5h12.7c0.3,0,0.5,0.2,0.5,0.5
		C14,13.2,13.8,13.4,13.5,13.4z"/>
</g>
</svg>
