<?xml version="1.0" encoding="utf-8"?>
<!-- Generator: Adobe Illustrator 25.2.1, SVG Export Plug-In . SVG Version: 6.00 Build 0)  -->
<svg version="1.1" id="Capa_1" xmlns="http://www.w3.org/2000/svg" xmlns:xlink="http://www.w3.org/1999/xlink" x="0px" y="0px"
	 viewBox="0 0 13 13" style="enable-background:new 0 0 13 13;" xml:space="preserve">
<style type="text/css">
	.st0{opacity:0.8;}
	.st1{fill:none;stroke:#686868;stroke-width:0.5;stroke-miterlimit:10;stroke-dasharray:0.6963,0.6963;}
</style>
<g class="st0">
	<g>
		<path class="st1" d="M11.7,4c0.2-0.2,0.3-0.5,0.3-0.8V1.6c0-0.4-0.3-0.7-0.7-0.7h-0.9h0H8.8h0H6.8h0h-2H3.1H1.4
			c-0.4,0-0.7,0.3-0.7,0.7v1.5c0,0.3,0.1,0.6,0.3,0.8l3.2,3.6c0.2,0.3,0.4,0.6,0.4,1v2.2c0,0.2,0.1,0.4,0.3,0.6l2.2,1.2
			c0.1,0.1,0.2,0.1,0.3,0.1c0.4,0,0.6-0.3,0.6-0.6V8.6c0-0.4,0.1-0.7,0.4-1L11.7,4z"/>
	</g>
</g>
</svg>
