<?xml version="1.0" encoding="utf-8"?>
<!-- Generator: Adobe Illustrator 25.2.1, SVG Export Plug-In . SVG Version: 6.00 Build 0)  -->
<svg version="1.1" id="Capa_1" xmlns="http://www.w3.org/2000/svg" xmlns:xlink="http://www.w3.org/1999/xlink" x="0px" y="0px"
	 viewBox="0 0 178 144" style="enable-background:new 0 0 178 144;" xml:space="preserve">
<style type="text/css">
	.st0{opacity:0.8;}
	.st1{fill:#73C914;}
	.st2{fill:#90D634;}
	.st3{fill:#FFFFFF;}
	.st4{font-family:'NexaBold';}
	.st5{font-size:98.364px;}
</style>
<g>
	<g class="st0">
		<g>
			<g>
				<path class="st1" d="M153.8,33.3v10.1H49.6c-5,0-9,4-9,9l0,68.1c0,9.4-6.9,17.8-16.3,18.7c-10.7,1-19.7-7.4-19.7-17.9V16.8
					c0-6.4,5.1-11.5,11.5-11.5h34.5c2.3,0,4.4,0.9,6.1,2.4l15.6,14.3c1.7,1.5,3.8,2.4,6.1,2.4h66.4
					C149.8,24.3,153.8,28.3,153.8,33.3z"/>
			</g>
		</g>
		<g>
			<g>
				<g>
					<path class="st2" d="M178,52.4v76c0,6-4.9,10.8-10.8,10.8H22.6c9.9,0,18-8.1,18-18V52.4c0-5,4-9,9-9H169
						C174,43.4,178,47.4,178,52.4z"/>
				</g>
			</g>
		</g>
	</g>
	<text transform="matrix(1 0 0 1 82.5387 123.0073)" class="st3 st4 st5">+</text>
</g>
</svg>
