<svg id="Capa_1" data-name="Capa 1" xmlns="http://www.w3.org/2000/svg" viewBox="0 0 32 32"><defs><style>.cls-1{fill:#73c914;}.cls-2{fill:#c8d6e4;}.cls-3{fill:#fff;}.cls-4{fill:#686868;}</style></defs><title>Asesorias</title><path class="cls-1" d="M24,7.12a5.53,5.53,0,0,0-5.16,5,5.61,5.61,0,0,0,.23,2.12,1.17,1.17,0,0,1-.22,1.09L17.66,16.8l2.22-.28H20a1.22,1.22,0,0,1,.77.28,5.45,5.45,0,0,0,4,1.31,5.5,5.5,0,0,0-.79-11Zm.07,8.4a3.39,3.39,0,0,1-1.25-.24.69.69,0,0,1-.39-.84v0a.71.71,0,0,1,.95-.44,1.83,1.83,0,0,0,.72.16c.23,0,.61-.06.61-.42,0-.15,0-.33-.66-.58-1.06-.38-1.61-1-1.61-1.83A1.88,1.88,0,0,1,24.55,9.5a3,3,0,0,1,1,.17.7.7,0,0,1,.42.87v0a.66.66,0,0,1-.37.4.68.68,0,0,1-.54,0,1.45,1.45,0,0,0-.55-.1c-.32,0-.51.11-.51.31s0,.28.72.56c1.08.41,1.56,1,1.56,1.87A2,2,0,0,1,24.11,15.52Z"/><path class="cls-1" d="M3,24.86l1.25,0,1.49-4.42a14.66,14.66,0,0,0-1.5-.25C4.09,20.94,3.75,22.27,3,24.86Z"/><path class="cls-2" d="M2.13,14.28v4.46H2.2c5.38,0,10.23,2.61,12.3,3.91V10.38c-2.07,1.29-6.92,3.9-12.3,3.9Z"/><path class="cls-3" d="M24.74,11.78c-.72-.28-.72-.43-.72-.56s.19-.31.51-.31a1.45,1.45,0,0,1,.55.1.68.68,0,0,0,.54,0,.66.66,0,0,0,.37-.4v0a.7.7,0,0,0-.42-.87,3,3,0,0,0-1-.17,1.88,1.88,0,0,0-2.06,1.79c0,.84.55,1.45,1.61,1.83.66.25.66.43.66.58,0,.36-.38.42-.61.42a1.83,1.83,0,0,1-.72-.16.71.71,0,0,0-.95.44v0a.69.69,0,0,0,.39.84,3.39,3.39,0,0,0,1.25.24,2,2,0,0,0,2.19-1.87C26.3,12.77,25.82,12.19,24.74,11.78Z"/><path class="cls-4" d="M15.46,8.56a.71.71,0,0,0-.74.06c-.63.45-6.36,4.42-12.79,4.31a1.09,1.09,0,0,0-.81.33,1.13,1.13,0,0,0-.34.81V19a1.15,1.15,0,0,0,.34.82,1.12,1.12,0,0,0,.81.32h1c-.18.82-.61,2.43-1.32,4.87a.94.94,0,0,0,.14.84,1,1,0,0,0,.76.39l2,0h0a1,1,0,0,0,.91-.66L7,20.78a26.25,26.25,0,0,1,7.68,3.63.72.72,0,0,0,.74.05.71.71,0,0,0,.39-.63V9.2A.71.71,0,0,0,15.46,8.56ZM4.24,24.89,3,24.86c.76-2.59,1.1-3.92,1.24-4.64a14.66,14.66,0,0,1,1.5.25ZM14.5,16.08v6.57c-2.07-1.3-6.92-3.91-12.3-3.91H2.13V14.28H2.2c5.38,0,10.23-2.61,12.3-3.9Z"/><path class="cls-4" d="M24,5.77A6.88,6.88,0,0,0,17.54,12a7,7,0,0,0,.25,2.54l-1.47,1.76a1.16,1.16,0,0,0,1,1.89L20,17.87a6.81,6.81,0,0,0,4.4,1.6,5.44,5.44,0,0,0,.57,0A6.85,6.85,0,0,0,24,5.77Zm.87,12.33a5.45,5.45,0,0,1-4-1.31,1.22,1.22,0,0,0-.77-.28h-.14l-2.22.28,1.23-1.46a1.17,1.17,0,0,0,.22-1.09,5.61,5.61,0,0,1-.23-2.12,5.51,5.51,0,0,1,9.4-3.39,5.51,5.51,0,0,1-3.45,9.36Z"/></svg>