<svg id="Capa_1" data-name="Capa 1" xmlns="http://www.w3.org/2000/svg" viewBox="0 0 32 32"><defs><style>.cls-1{fill:red;}.cls-2{fill:#686868;}.cls-3{fill:#8c00c9;}.cls-3,.cls-5{opacity:0.3;}.cls-4{fill:#9c9b9b;}.cls-5{fill:#c92800;}.cls-6{fill:#fff;}.cls-7{fill:#ffd8a2;}.cls-8{fill:#ffb221;}</style></defs><title>Electricos</title><polygon class="cls-1" points="27.97 12.66 27.99 12.64 27.97 12.66 27.97 12.66"/><path class="cls-2" d="M18.91,9H17.75a.58.58,0,1,1,0-1.16h1.16a.58.58,0,1,1,0,1.16Z"/><path class="cls-2" d="M16.58,18.33a.58.58,0,0,1-.41-.17l-1.75-1.75a.59.59,0,0,1,0-.82.59.59,0,0,1,.83,0L17,17.34a.57.57,0,0,1,0,.82A.58.58,0,0,1,16.58,18.33Z"/><path class="cls-2" d="M7.26,20.66a.58.58,0,0,1-.58-.58V17.75a.59.59,0,1,1,1.17,0v2.33A.58.58,0,0,1,7.26,20.66Z"/><path class="cls-3" d="M29.39,9.59V7.26h-1l-.41-1,.72-.72L27,3.9l-.73.72-1-.41v-1H23v1l-1,.41-.72-.72L19.62,5.55l.73.72c-.2.48-.22.52-.41,1h-1V9.59h1l.41,1-.73.72L21.27,13l.72-.72,1,.41v1h2.33v-1l1-.41L27,13l1.64-1.65L28,10.59l.41-1Zm-5.24.59A1.75,1.75,0,1,1,25.9,8.43,1.75,1.75,0,0,1,24.15,10.18Z"/><path class="cls-4" d="M25.32,14.25H23a.58.58,0,0,1-.58-.58V13l-.28-.12-.45.45a.59.59,0,0,1-.82,0l-1.65-1.65a.57.57,0,0,1-.17-.41.58.58,0,0,1,.17-.41l.45-.45-.11-.27h-.64a.58.58,0,0,1-.58-.59V7.26a.58.58,0,0,1,.58-.58h.64l.11-.27L19.21,6a.59.59,0,0,1,0-.83l1.65-1.64a.58.58,0,0,1,.41-.17h0a.58.58,0,0,1,.41.17l.45.45.28-.12V3.19A.58.58,0,0,1,23,2.61h2.33a.58.58,0,0,1,.58.58v.63l.28.12.44-.45a.6.6,0,0,1,.83,0l1.64,1.64a.59.59,0,0,1,0,.83l-.44.45.11.27h.63a.58.58,0,0,1,.59.58V9.59a.58.58,0,0,1-.59.59h-.63l-.11.27.44.45a.59.59,0,0,1,.18.41.58.58,0,0,1-.18.41l-1.64,1.65a.58.58,0,0,1-.41.17h0a.59.59,0,0,1-.42-.17l-.44-.45L25.9,13v.63A.58.58,0,0,1,25.32,14.25Zm-1.75-1.16h1.17v-.44a.58.58,0,0,1,.36-.54l1-.41a.58.58,0,0,1,.63.12l.32.32.82-.83L27.55,11a.57.57,0,0,1-.13-.63l.41-1A.59.59,0,0,1,28.37,9h.44V7.85h-.44a.6.6,0,0,1-.54-.36l-.41-1a.57.57,0,0,1,.13-.63l.31-.31L27,4.72,26.72,5a.58.58,0,0,1-.63.12l-1-.41a.58.58,0,0,1-.35-.54V3.77H23.57v.44a.58.58,0,0,1-.36.54l-1,.41A.6.6,0,0,1,21.58,5l-.31-.32-.82.83.31.31a.57.57,0,0,1,.13.63l-.42,1a.59.59,0,0,1-.53.36h-.45V9h.45a.57.57,0,0,1,.53.36l.42,1a.57.57,0,0,1-.13.63l-.31.31.82.83.31-.32a.6.6,0,0,1,.64-.12l1,.41a.58.58,0,0,1,.36.54Zm.58-2.33a2.33,2.33,0,1,1,2.33-2.33A2.34,2.34,0,0,1,24.15,10.76Zm0-3.5a1.17,1.17,0,1,0,1.17,1.17A1.17,1.17,0,0,0,24.15,7.26Z"/><path class="cls-5" d="M26.48,22.64V20.43H25c-.19-.46-.21-.49-.39-.95l1.24-1.24-1.57-1.56L23,17.92l-.94-.39V16H19.84v1.53l-.94.39-1.24-1.24-1.57,1.56,1.24,1.24c-.18.46-.2.49-.39.95H15.42v2.21h1.52c.19.45.21.49.39.94l-1.24,1.24,1.57,1.57,1.24-1.24.94.39v1.52h2.22V25.54l.94-.39,1.24,1.24,1.57-1.57-1.24-1.24c.18-.45.2-.49.39-.94ZM21,23.19a1.66,1.66,0,1,1,1.66-1.66A1.66,1.66,0,0,1,21,23.19Z"/><path class="cls-4" d="M22.06,27.65H19.84a.58.58,0,0,1-.58-.59V25.93L19,25.84l-1,1a.57.57,0,0,1-.82,0l-1.57-1.56a.59.59,0,0,1,0-.83l1-1-.1-.23H15.42a.58.58,0,0,1-.58-.58V20.43a.58.58,0,0,1,.58-.59h1.13l.1-.22-1-1a.57.57,0,0,1-.17-.41.58.58,0,0,1,.17-.41l1.57-1.57a.59.59,0,0,1,.82,0l1,1,.22-.09V16a.58.58,0,0,1,.58-.58h2.22a.58.58,0,0,1,.58.58v1.14l.22.09,1-1a.59.59,0,0,1,.82,0l1.57,1.57a.58.58,0,0,1,.17.41.57.57,0,0,1-.17.41l-1,1,.1.22h1.13a.58.58,0,0,1,.58.59v2.21a.58.58,0,0,1-.58.58H25.35l-.1.23,1,1a.59.59,0,0,1,0,.83L24.65,26.8a.57.57,0,0,1-.82,0l-1-1-.22.09v1.13A.58.58,0,0,1,22.06,27.65Zm-1.63-1.17h1v-.94a.59.59,0,0,1,.36-.54l1-.39a.57.57,0,0,1,.63.13l.83.83.74-.75L24.15,24a.58.58,0,0,1-.12-.63l.39-.94a.58.58,0,0,1,.54-.36h.94V21H25a.58.58,0,0,1-.54-.36L24,19.71a.6.6,0,0,1,.12-.64l.83-.83-.74-.74-.83.83a.58.58,0,0,1-.63.12l-1-.39a.59.59,0,0,1-.36-.53v-1h-1v1a.59.59,0,0,1-.36.53l-.95.39a.56.56,0,0,1-.63-.12l-.83-.83-.74.74.83.83a.6.6,0,0,1,.12.64l-.39.94a.58.58,0,0,1-.54.36H16v1h.94a.58.58,0,0,1,.54.36l.39.94a.58.58,0,0,1-.12.63l-.83.83.74.75.83-.83a.57.57,0,0,1,.63-.13l.95.39a.59.59,0,0,1,.36.54ZM21,23.77a2.24,2.24,0,1,1,2.24-2.24A2.24,2.24,0,0,1,21,23.77Zm0-3.31A1.08,1.08,0,1,0,22,21.53,1.08,1.08,0,0,0,21,20.46Z"/><path class="cls-6" d="M10.79,24.74a3.31,3.31,0,0,0-.06-.64l1.19-.69-1.17-2-1.2.68a3.7,3.7,0,0,0-1.11-.64V20.08H6.09v1.36A3.7,3.7,0,0,0,5,22.08l-1.2-.68-1.17,2,1.19.69a3.39,3.39,0,0,0,0,1.27l-1.19.69,1.17,2L5,27.39A3.5,3.5,0,0,0,6.09,28v1.36H8.44V28a3.5,3.5,0,0,0,1.11-.64l1.2.68,1.17-2-1.19-.69A3.28,3.28,0,0,0,10.79,24.74ZM7.26,25.9a1.17,1.17,0,1,1,1.18-1.16A1.17,1.17,0,0,1,7.26,25.9Z"/><path class="cls-4" d="M8.44,30H6.09a.58.58,0,0,1-.58-.59v-1a5.45,5.45,0,0,1-.58-.33l-.86.49a.58.58,0,0,1-.79-.21l-1.18-2A.57.57,0,0,1,2,25.91a.59.59,0,0,1,.28-.36l.85-.49c0-.11,0-.22,0-.32s0-.22,0-.33l-.85-.49A.57.57,0,0,1,2,23.57a.59.59,0,0,1,.06-.45l1.18-2a.58.58,0,0,1,.79-.21l.86.49a5.45,5.45,0,0,1,.58-.33v-1a.58.58,0,0,1,.58-.59H8.44a.58.58,0,0,1,.58.59v1a5.45,5.45,0,0,1,.58.33l.86-.49a.58.58,0,0,1,.79.21l1.18,2a.64.64,0,0,1,.06.45.57.57,0,0,1-.28.35l-.85.49c0,.11,0,.22,0,.33s0,.21,0,.32l.85.49a.59.59,0,0,1,.28.36.62.62,0,0,1-.06.44l-1.18,2a.58.58,0,0,1-.79.21l-.86-.49a5.45,5.45,0,0,1-.58.33v1A.58.58,0,0,1,8.44,30ZM6.67,28.81H7.86V28a.57.57,0,0,1,.39-.55A3.07,3.07,0,0,0,9.18,27a.57.57,0,0,1,.66-.07l.7.4.58-1-.68-.39a.58.58,0,0,1-.28-.61,2.89,2.89,0,0,0,0-1.07.59.59,0,0,1,.28-.61l.68-.39-.58-1-.7.4a.57.57,0,0,1-.66-.07A3.07,3.07,0,0,0,8.25,22a.57.57,0,0,1-.39-.55v-.78H6.67v.78a.57.57,0,0,1-.39.55,3.07,3.07,0,0,0-.93.53.57.57,0,0,1-.66.07l-.7-.4-.59,1,.69.39a.59.59,0,0,1,.28.61,2.89,2.89,0,0,0,0,1.07.58.58,0,0,1-.28.61l-.69.39.59,1,.7-.4a.57.57,0,0,1,.66.07,3.07,3.07,0,0,0,.93.53.57.57,0,0,1,.39.55Zm.59-2.33A1.75,1.75,0,1,1,9,24.74,1.75,1.75,0,0,1,7.26,26.48Zm0-2.33a.59.59,0,1,0,.6.59A.59.59,0,0,0,7.26,24.15Z"/><path class="cls-6" d="M9,15.42A6.41,6.41,0,1,1,15.42,9,6.4,6.4,0,0,1,9,15.42Z"/><path class="cls-2" d="M9,16A7,7,0,1,1,12.33,2.86a.58.58,0,0,1,.23.78.59.59,0,0,1-.79.24A5.74,5.74,0,0,0,9,3.19,5.81,5.81,0,1,0,14.49,7a.52.52,0,0,1,0-.44.63.63,0,0,1,.33-.31.59.59,0,0,1,.74.35A6.75,6.75,0,0,1,16,9,7,7,0,0,1,9,16ZM13.85,5.4a.57.57,0,0,1-.44-.2h0a.57.57,0,0,1-.14-.42.58.58,0,0,1,1.16.08.61.61,0,0,1-.19.41A.62.62,0,0,1,13.85,5.4Z"/><polygon class="cls-7" points="10.35 5.09 9.95 8.35 11.57 8.35 7.91 12.43 8.32 9.17 6.69 9.17 10.35 5.09"/><path class="cls-8" d="M7.91,12.83a.47.47,0,0,1-.17,0,.43.43,0,0,1-.24-.43l.35-2.8H6.69a.42.42,0,0,1-.38-.24.44.44,0,0,1,.07-.44l3.67-4.07a.42.42,0,0,1,.47-.1.43.43,0,0,1,.24.42l-.35,2.8h1.16a.42.42,0,0,1,.38.25.4.4,0,0,1-.07.43L8.21,12.7A.39.39,0,0,1,7.91,12.83ZM7.6,8.76h.72a.41.41,0,0,1,.4.46l-.25,2,2.19-2.43H10a.41.41,0,0,1-.41-.46l.25-2Z"/></svg>