<svg id="Capa_1" data-name="Capa 1" xmlns="http://www.w3.org/2000/svg" viewBox="0 0 32 32"><defs><style>.cls-1{fill:#c8d6e4;}.cls-2{fill:#fd9d4c;}.cls-3{fill:#ffc107;}.cls-4{fill:#686868;}</style></defs><title>Obras</title><path class="cls-1" d="M5.91,21.2l-3.1,3.1a0,0,0,0,0,0,0l.74.87h0L6.5,22.38a2.53,2.53,0,0,1,1.77-.71H19.39l-.73-.47Z"/><path class="cls-2" d="M25.86,21.2H20.92l1.64,1.05a1.32,1.32,0,0,0,.7.2h5.55l-2.54-1.31A1.35,1.35,0,0,1,25.86,21.2Z"/><path class="cls-3" d="M5.31,20H25.86a.28.28,0,0,0,.28-.25c0-.31,0-.62,0-.93a10.69,10.69,0,0,0-1.08-4.71A11.66,11.66,0,0,0,20,8.84l-.37-.19A13.33,13.33,0,0,0,18,8a12.68,12.68,0,0,0-3.8-.59A12.34,12.34,0,0,0,7.8,9.23,11.76,11.76,0,0,0,4.59,12.1a10.81,10.81,0,0,0-2.06,9,.19.19,0,0,0,.11.14.17.17,0,0,0,.17,0l1.79-1A1.36,1.36,0,0,1,5.31,20Zm-.85-2.92a.58.58,0,0,1-.55-.74,9.62,9.62,0,0,1,1.71-3.43,10.39,10.39,0,0,1,2.85-2.55,11,11,0,0,1,5.76-1.6,10.75,10.75,0,0,1,1.8.15.56.56,0,0,1,.47.41.58.58,0,0,1-.66.73,9.54,9.54,0,0,0-1.61-.13,9.91,9.91,0,0,0-5.15,1.43A9.07,9.07,0,0,0,6.54,13.6a8.54,8.54,0,0,0-1.51,3,.59.59,0,0,1-.56.43Z"/><path class="cls-2" d="M18.57,6.94l.2.06.26.1.19.07.26.11.19.07.27.13.16.07.3.15.13.06.41.23L21,8l.32.19.15.1.25.16.17.11.22.16.17.12.21.16.17.13.2.17.16.14.2.17.16.14.18.18.16.15.18.18.15.16.17.19.14.16.17.2.1.12-.42-2.94a.86.86,0,0,0-.72-.76,43.89,43.89,0,0,0-5.29-.61l.09,0Z"/><path class="cls-4" d="M27.24,20.28a1.35,1.35,0,0,0,.11-.45c0-.34,0-.69,0-1a12.1,12.1,0,0,0-1.15-5.15L25.45,8a2.08,2.08,0,0,0-1.72-1.8c-7.55-1.3-12.82-.67-16.58,2a12.87,12.87,0,0,0-3.53,3.16,12.14,12.14,0,0,0-2.28,10,1.44,1.44,0,0,0,.81,1,1.38,1.38,0,0,0,.56.12.85.85,0,0,0,.23,0l-1,1a1.24,1.24,0,0,0-.07,1.68l.74.87a1.21,1.21,0,0,0,.88.43h.06a1.24,1.24,0,0,0,.86-.34l2.92-2.82a1.34,1.34,0,0,1,.93-.38H21.08v-.13l.82.52a2.51,2.51,0,0,0,1.36.4H30a.93.93,0,0,0,.42-1.75ZM23.52,7.43a.86.86,0,0,1,.72.76l.42,2.94-.1-.12-.17-.2-.14-.16-.17-.19-.15-.16-.18-.18L23.59,10l-.18-.18-.16-.14-.2-.17-.16-.14-.2-.17L22.52,9l-.21-.16-.17-.12-.22-.16-.17-.11-.25-.16-.15-.1L21,8l-.09,0-.41-.23L20.4,7.7l-.3-.15-.16-.07-.27-.13-.19-.07-.26-.11L19,7.1,18.77,7l-.2-.06-.25-.09-.09,0A43.89,43.89,0,0,1,23.52,7.43ZM2.81,21.22a.17.17,0,0,1-.17,0,.19.19,0,0,1-.11-.14,10.81,10.81,0,0,1,2.06-9A11.76,11.76,0,0,1,7.8,9.23a12.34,12.34,0,0,1,6.43-1.79A12.68,12.68,0,0,1,18,8a13.33,13.33,0,0,1,1.56.62l.37.19a11.66,11.66,0,0,1,5.14,5.25,10.69,10.69,0,0,1,1.08,4.71c0,.31,0,.62,0,.93a.28.28,0,0,1-.28.25H5.31a1.36,1.36,0,0,0-.71.2Zm5.46.45a2.53,2.53,0,0,0-1.77.71L3.58,25.2h0l-.74-.87a0,0,0,0,1,0,0l3.1-3.1H18.66l.73.47Zm15,.78a1.32,1.32,0,0,1-.7-.2L20.92,21.2h4.94a1.35,1.35,0,0,0,.41-.06l2.54,1.31Z"/><path class="cls-4" d="M5,16.63a8.54,8.54,0,0,1,1.51-3,9.07,9.07,0,0,1,2.54-2.27A9.91,9.91,0,0,1,14.23,9.9a9.54,9.54,0,0,1,1.61.13.58.58,0,0,0,.66-.73A.56.56,0,0,0,16,8.89a10.75,10.75,0,0,0-1.8-.15,11,11,0,0,0-5.76,1.6,10.39,10.39,0,0,0-2.85,2.55,9.62,9.62,0,0,0-1.71,3.43.58.58,0,0,0,.55.74h0A.59.59,0,0,0,5,16.63Z"/></svg>