<svg id="Capa_1" data-name="Capa 1" xmlns="http://www.w3.org/2000/svg" viewBox="0 0 32 32"><defs><style>.cls-1{fill:#c900a1;}.cls-1,.cls-3,.cls-4,.cls-5{opacity:0.5;}.cls-2{fill:#686868;}.cls-3{fill:#c92800;}.cls-4{fill:#00a1c9;}.cls-5{fill:#003dc9;}</style></defs><title>Otras</title><path class="cls-1" d="M5.46,11.23a1.7,1.7,0,0,0,.83.23,1.67,1.67,0,1,0,0-3.33,1.7,1.7,0,0,0-.83.23V4.25H9.78a1.63,1.63,0,0,0-.44,1.11,1.67,1.67,0,0,0,3.33,0,1.62,1.62,0,0,0-.43-1.11h4.87V8.84a1.62,1.62,0,0,1,1.11-.43,1.66,1.66,0,0,1,0,3.32,1.62,1.62,0,0,1-1.11-.43v4.59H12.24A1.66,1.66,0,0,1,11,18.67a1.66,1.66,0,0,1-1.23-2.78H5.46Z"/><path class="cls-2" d="M11,19.28A2.28,2.28,0,0,1,8.74,17a2.83,2.83,0,0,1,0-.5H5.46a.61.61,0,0,1-.61-.61V11.23a.61.61,0,0,1,.31-.53.61.61,0,0,1,.61,0,1,1,0,0,0,.52.15,1.06,1.06,0,1,0,0-2.11,1.1,1.1,0,0,0-.52.14.63.63,0,0,1-.61,0,.61.61,0,0,1-.31-.53V4.25a.61.61,0,0,1,.61-.61H9.78a.61.61,0,0,1,.45,1,1,1,0,0,0-.28.71,1.06,1.06,0,0,0,2.11,0,1.09,1.09,0,0,0-.27-.71.6.6,0,0,1-.1-.65.59.59,0,0,1,.55-.36h4.87a.61.61,0,0,1,.61.61V7.86a2.07,2.07,0,0,1,.5-.06,2.27,2.27,0,0,1,0,4.54,2.07,2.07,0,0,1-.5-.06v3.61a.61.61,0,0,1-.61.61H13.22a2.14,2.14,0,0,1,.06.5A2.28,2.28,0,0,1,11,19.28Zm-4.94-4H9.78a.61.61,0,0,1,.45,1A1,1,0,0,0,10,17a1.06,1.06,0,1,0,2.11,0,1.08,1.08,0,0,0-.27-.7.6.6,0,0,1-.1-.65.59.59,0,0,1,.55-.36H16.5v-4a.6.6,0,0,1,.36-.55.61.61,0,0,1,.66.1,1,1,0,0,0,.7.28,1.06,1.06,0,0,0,0-2.12,1,1,0,0,0-.7.28.61.61,0,0,1-.66.1.59.59,0,0,1-.36-.55v-4H13.22a2.22,2.22,0,0,1,.06.51,2.27,2.27,0,1,1-4.54,0,2.94,2.94,0,0,1,0-.51H6.07V7.53h.22a2.27,2.27,0,0,1,0,4.54H6.07Z"/><path class="cls-3" d="M16,20.05a1.65,1.65,0,0,1,1.11.44v-4.6H12.24A1.66,1.66,0,0,1,11,18.67a1.66,1.66,0,0,1-1.23-2.78H5.46v4.27a1.46,1.46,0,0,0-.55-.11,1.67,1.67,0,1,0,.55,3.23v4.26H9.63a1.54,1.54,0,0,0-.31.91,1.52,1.52,0,0,0,3,0,1.48,1.48,0,0,0-.32-.91h5.07V23a1.64,1.64,0,0,1-1.11.43,1.67,1.67,0,0,1,0-3.33Z"/><path class="cls-2" d="M10.84,30.58a2.13,2.13,0,0,1-2.13-2.13c0-.1,0-.2,0-.3H5.46a.61.61,0,0,1-.61-.61V24a2.27,2.27,0,0,1,0-4.54V15.89a.61.61,0,0,1,.61-.6H9.78a.61.61,0,0,1,.45,1A1,1,0,0,0,10,17a1.06,1.06,0,1,0,2.11,0,1.08,1.08,0,0,0-.27-.7.6.6,0,0,1-.1-.65.59.59,0,0,1,.55-.36h4.87a.61.61,0,0,1,.61.6v4.6a.6.6,0,0,1-.36.55.61.61,0,0,1-.66-.1,1,1,0,0,0-.7-.28,1.06,1.06,0,1,0,0,2.12,1,1,0,0,0,.7-.28.61.61,0,0,1,.66-.1.59.59,0,0,1,.36.55v4.59a.61.61,0,0,1-.61.61H12.94a1.51,1.51,0,0,1,0,.3A2.12,2.12,0,0,1,10.84,30.58ZM6.07,26.94H9.63a.6.6,0,0,1,.54.33.62.62,0,0,1-.06.64.93.93,0,0,0-.18.54.91.91,0,1,0,1.82,0,.87.87,0,0,0-.19-.54.62.62,0,0,1-.06-.64.6.6,0,0,1,.54-.33H16.5v-3A2.07,2.07,0,0,1,16,24a2.27,2.27,0,0,1,0-4.54,2.73,2.73,0,0,1,.5.05v-3H13.22a2.14,2.14,0,0,1,.06.5,2.27,2.27,0,1,1-4.54,0,2.83,2.83,0,0,1,0-.5H6.07v3.66a.61.61,0,0,1-.81.57,1,1,0,0,0-.35-.07,1.06,1.06,0,0,0,0,2.12,1.21,1.21,0,0,0,.35-.07.6.6,0,0,1,.55.07.63.63,0,0,1,.26.5Z"/><path class="cls-4" d="M18.22,8.41a1.66,1.66,0,0,1,0,3.32,1.62,1.62,0,0,1-1.11-.43v4.59H21.7A1.71,1.71,0,0,0,21.27,17a1.67,1.67,0,1,0,3.33,0,1.71,1.71,0,0,0-.43-1.11h4.59V4.25H24.5a1.74,1.74,0,0,0,.1-.56,1.67,1.67,0,0,0-3.33,0,1.74,1.74,0,0,0,.1.56H17.11V8.84A1.62,1.62,0,0,1,18.22,8.41Z"/><path class="cls-2" d="M22.93,19.28A2.28,2.28,0,0,1,20.66,17a2.14,2.14,0,0,1,.06-.5H17.11a.61.61,0,0,1-.61-.61V11.3a.6.6,0,0,1,.36-.55.61.61,0,0,1,.66.1,1,1,0,0,0,.7.28,1.06,1.06,0,0,0,0-2.12,1,1,0,0,0-.7.28.61.61,0,0,1-.66.1.59.59,0,0,1-.36-.55V4.25a.61.61,0,0,1,.61-.61h3.55a2.27,2.27,0,0,1,4.54,0h3.56a.61.61,0,0,1,.61.61V15.89a.61.61,0,0,1-.61.61H25.15a2.14,2.14,0,0,1,.06.5A2.28,2.28,0,0,1,22.93,19.28Zm-5.21-4h4a.6.6,0,0,1,.45,1,1.08,1.08,0,0,0-.27.7A1.06,1.06,0,1,0,24,17a1,1,0,0,0-.28-.7.6.6,0,0,1-.1-.65.62.62,0,0,1,.56-.36h4V4.85H24.5A.6.6,0,0,1,24,4.6.65.65,0,0,1,23.92,4,.91.91,0,0,0,24,3.69a1.06,1.06,0,1,0-2.11,0,1.12,1.12,0,0,0,.06.35.6.6,0,0,1-.57.81H17.72v3a2.07,2.07,0,0,1,.5-.06,2.27,2.27,0,0,1,0,4.54,2.07,2.07,0,0,1-.5-.06Z"/><path class="cls-5" d="M15.64,20.09a1.66,1.66,0,0,1,1.47.4v-4.6H21.7A1.66,1.66,0,1,0,24.6,17a1.71,1.71,0,0,0-.43-1.11h4.59v9.43a2.22,2.22,0,0,1-2.22,2.22H17.11V23a1.64,1.64,0,0,1-1.11.43,1.66,1.66,0,0,1-.36-3.29Z"/><path class="cls-2" d="M26.54,28.15H17.11a.61.61,0,0,1-.61-.61V23.93a2.27,2.27,0,1,1-1-4.43h0a2.31,2.31,0,0,1,1,0V15.89a.6.6,0,0,1,.61-.6H21.7a.6.6,0,0,1,.45,1,1,1,0,0,0-.25.93,1.06,1.06,0,0,0,.84.81,1,1,0,0,0,.87-.23A1,1,0,0,0,24,17a1,1,0,0,0-.28-.7.6.6,0,0,1-.1-.65.62.62,0,0,1,.56-.36h4.59a.61.61,0,0,1,.61.6v9.43A2.83,2.83,0,0,1,26.54,28.15Zm-8.82-1.21h8.82a1.62,1.62,0,0,0,1.61-1.62V16.5h-3a2.14,2.14,0,0,1,.06.5,2.28,2.28,0,0,1-4.5.48,2.31,2.31,0,0,1,0-1h-3v4a.6.6,0,0,1-.36.55.61.61,0,0,1-.66-.1,1,1,0,0,0-.93-.25h0a1,1,0,0,0-.81.84,1.08,1.08,0,0,0,.23.87,1.06,1.06,0,0,0,.81.38,1,1,0,0,0,.7-.28.61.61,0,0,1,.66-.1.59.59,0,0,1,.36.55Zm-2.08-6.85h0Z"/></svg>