<svg id="Capa_1" data-name="Capa 1" xmlns="http://www.w3.org/2000/svg" viewBox="0 0 32 32"><defs><style>.cls-1{fill:#608892;}.cls-2{opacity:0.04;}.cls-3{fill:#809296;}.cls-4{fill:#fff;}.cls-5{opacity:0.07;}.cls-6{fill:#686868;}</style></defs><title>Redes</title><path class="cls-1" d="M26.41,6.93V25.07a1.34,1.34,0,0,1-1.34,1.34H6.93a1.34,1.34,0,0,1-1.34-1.34V6.93A1.34,1.34,0,0,1,6.93,5.59H25.07A1.34,1.34,0,0,1,26.41,6.93Z"/><g class="cls-2"><path d="M26.41,6.93V25.07a1.34,1.34,0,0,1-1.34,1.34H6.93a1.34,1.34,0,0,1-1.34-1.34v-.45H18.1a6.52,6.52,0,0,0,6.52-6.53V5.59h.45A1.34,1.34,0,0,1,26.41,6.93Z"/></g><rect class="cls-3" x="8.56" y="8.56" width="14.89" height="14.89"/><g class="cls-2"><path d="M23.45,8.56V23.44H8.56V21.69H15.1a6.6,6.6,0,0,0,6.59-6.59V8.56Z"/></g><path class="cls-4" d="M20.29,11.71a1.74,1.74,0,1,0,0,2.46A1.74,1.74,0,0,0,20.29,11.71Z"/><path class="cls-4" d="M14.17,17.83a1.74,1.74,0,1,0,0,2.46A1.74,1.74,0,0,0,14.17,17.83Z"/><path class="cls-4" d="M14.17,11.71a1.74,1.74,0,1,0,0,2.46A1.74,1.74,0,0,0,14.17,11.71Z"/><path class="cls-4" d="M20.29,17.83a1.74,1.74,0,1,0,0,2.46A1.74,1.74,0,0,0,20.29,17.83Z"/><g class="cls-5"><path d="M20.29,14.17a1.74,1.74,0,0,1-2.46,0,1.61,1.61,0,0,1-.4-.63,1.72,1.72,0,0,0,1.83-.39,1.74,1.74,0,0,0,.41-1.84,1.69,1.69,0,0,1,.62.4A1.74,1.74,0,0,1,20.29,14.17Z"/></g><g class="cls-5"><path d="M14.17,20.29a1.74,1.74,0,0,1-2.46,0,1.54,1.54,0,0,1-.4-.62,1.74,1.74,0,0,0,2.24-2.24,1.54,1.54,0,0,1,.62.4A1.74,1.74,0,0,1,14.17,20.29Z"/></g><g class="cls-5"><path d="M14.17,14.17a1.74,1.74,0,0,1-2.46,0,1.51,1.51,0,0,1-.4-.63,1.73,1.73,0,0,0,2.24-2.22,1.63,1.63,0,0,1,.62.39A1.74,1.74,0,0,1,14.17,14.17Z"/></g><g class="cls-5"><path d="M20.29,20.29a1.74,1.74,0,0,1-2.46,0,1.77,1.77,0,0,1-.4-.63,1.72,1.72,0,0,0,1.84-.4,1.74,1.74,0,0,0,.4-1.83,1.61,1.61,0,0,1,.62.4A1.74,1.74,0,0,1,20.29,20.29Z"/></g><path class="cls-6" d="M29.58,12.3a.57.57,0,0,0,0-1.13H27V9.46h2.61a.57.57,0,0,0,0-1.13H27V6.92A1.9,1.9,0,0,0,25.07,5h-1.4V2.42a.57.57,0,0,0-1.13,0V5H20.83V2.42a.57.57,0,0,0-1.13,0V5H18V2.42a.57.57,0,0,0-.57-.56.56.56,0,0,0-.56.56V5H15.14V2.42a.56.56,0,0,0-.56-.56.57.57,0,0,0-.57.56V5H12.3V2.42a.57.57,0,0,0-1.13,0V5H9.46V2.42a.57.57,0,0,0-1.13,0V5H6.93A1.9,1.9,0,0,0,5,6.92V8.33H2.42a.57.57,0,0,0,0,1.13H5v1.71H2.42a.57.57,0,0,0,0,1.13H5V14H2.42a.57.57,0,0,0-.56.57.56.56,0,0,0,.56.56H5v1.72H2.42a.56.56,0,0,0-.56.56.57.57,0,0,0,.56.57H5V19.7H2.42a.57.57,0,0,0,0,1.13H5v1.71H2.42a.57.57,0,0,0,0,1.13H5v1.4A1.9,1.9,0,0,0,6.93,27h1.4v2.61a.57.57,0,0,0,1.13,0V27h1.71v2.61a.57.57,0,0,0,1.13,0V27H14v2.61a.57.57,0,0,0,.57.56.56.56,0,0,0,.56-.56V27h1.72v2.61a.56.56,0,0,0,.56.56.57.57,0,0,0,.57-.56V27H19.7v2.61a.57.57,0,0,0,1.13,0V27h1.71v2.61a.57.57,0,0,0,1.13,0V27h1.4a1.9,1.9,0,0,0,1.9-1.9v-1.4h2.61a.57.57,0,0,0,0-1.13H27V20.83h2.61a.57.57,0,0,0,0-1.13H27V18h2.61a.57.57,0,0,0,.56-.57.56.56,0,0,0-.56-.56H27V15.14h2.61a.56.56,0,0,0,.56-.56.57.57,0,0,0-.56-.57H27V12.3ZM25.84,25.07a.77.77,0,0,1-.77.77H6.93a.76.76,0,0,1-.77-.77V6.92a.77.77,0,0,1,.77-.76H25.07a.77.77,0,0,1,.77.76Z"/><path class="cls-6" d="M23.48,8h-15A.57.57,0,0,0,8,8.55V23.44a.56.56,0,0,0,.57.57H23.45a.56.56,0,0,0,.56-.57V8.55A.58.58,0,0,0,23.48,8ZM9.93,22.88,11.76,21a2.31,2.31,0,1,0-.8-.8L9.12,22.08V9.92L11,11.76a2.31,2.31,0,1,0,3.61-.45,2.27,2.27,0,0,0-1.63-.67,2.3,2.3,0,0,0-1.18.32L9.92,9.12H22.08L20.24,11a2.31,2.31,0,1,0,.8.8l1.84-1.84V22.07L21,20.23a2.29,2.29,0,1,0-.8.81l1.84,1.84Zm2.18-4.65a1.17,1.17,0,0,1,1.66,1.66,1.2,1.2,0,0,1-1.66,0A1.17,1.17,0,0,1,12.11,18.23Zm0-6.12a1.17,1.17,0,1,1,0,1.66A1.18,1.18,0,0,1,12.11,12.11Zm7.78,1.66a1.2,1.2,0,0,1-1.67,0,1.18,1.18,0,1,1,1.67,0Zm0,6.12a1.22,1.22,0,0,1-1.66,0,1.17,1.17,0,1,1,1.66,0Z"/></svg>