<svg id="Capa_1" data-name="Capa 1" xmlns="http://www.w3.org/2000/svg" viewBox="0 0 32 32"><defs><style>.cls-1{fill:#c9003d;}.cls-2{fill:#686868;}.cls-3{fill:#fff;}</style></defs><title>Salud</title><path class="cls-1" d="M23.85,5.18c-2.9.22-5.65,3.3-6.7,4.61a1.46,1.46,0,0,1-2.3,0c-1-1.31-3.8-4.39-6.7-4.61l-.35,0a4.37,4.37,0,0,0-3,1.27A6.15,6.15,0,0,0,2.88,12.1c.68,5.13,5.93,11.15,12.75,14.65a.81.81,0,0,0,.74,0c6.82-3.5,12.07-9.52,12.75-14.65A6.15,6.15,0,0,0,27.2,6.43,4.28,4.28,0,0,0,23.85,5.18Zm-.39,12.87H20.68L18.56,23c-.27.63-1.18.36-1.35-.18l-2.94-9c-.5,1.31-1,2.61-1.49,3.91a.75.75,0,0,1-.71.54H8.54a.74.74,0,0,1,0-1.48h3l2-5.38a.75.75,0,0,1,1.43,0q1.49,4.59,3,9.18c.51-1.19,1-2.38,1.54-3.58a.72.72,0,0,1,.64-.36h3.26A.74.74,0,0,1,23.46,18.05Z"/><path class="cls-2" d="M23.74,3.7C20.38,4,17.45,7.05,16,8.86,14.55,7.05,11.62,4,8.26,3.7A5.77,5.77,0,0,0,3.8,5.34a7.65,7.65,0,0,0-2.39,7C2.17,18,7.61,24.3,15,28.07a2.33,2.33,0,0,0,2.1,0C24.39,24.3,29.83,18,30.59,12.3a7.65,7.65,0,0,0-2.39-7A5.77,5.77,0,0,0,23.74,3.7Zm5.38,8.4c-.68,5.13-5.93,11.15-12.75,14.65a.81.81,0,0,1-.74,0C8.81,23.25,3.56,17.23,2.88,12.1A6.15,6.15,0,0,1,4.8,6.43a4.37,4.37,0,0,1,3-1.27l.35,0c2.9.22,5.65,3.3,6.7,4.61a1.46,1.46,0,0,0,2.3,0C18.2,8.48,21,5.4,23.85,5.18A4.28,4.28,0,0,1,27.2,6.43,6.15,6.15,0,0,1,29.12,12.1Z"/><path class="cls-3" d="M23.46,16.61l-3.26,0a.71.71,0,0,0-.64.37L18,20.52q-1.45-4.61-2.93-9.2a.74.74,0,0,0-1.42,0l-2.09,5.37-3,0a.75.75,0,0,0,0,1.49l3.53,0a.77.77,0,0,0,.72-.54l1.51-3.9q1.44,4.55,2.89,9.07c.17.54,1.07.81,1.35.19.71-1.64,1.43-3.28,2.14-4.91h2.78A.74.74,0,0,0,23.46,16.61Z"/></svg>