<svg id="Capa_1" data-name="Capa 1" xmlns="http://www.w3.org/2000/svg" viewBox="0 0 32 32"><defs><style>.cls-1{fill:#057cce;}.cls-1,.cls-4{opacity:0.7;}.cls-2{fill:#ffc107;}.cls-3{fill:#c8d6e4;}.cls-4{fill:#006fc9;}.cls-5{fill:#686868;}</style></defs><title>Suministros</title><path class="cls-1" d="M12.8,11.52a1.06,1.06,0,0,1,1.06-1h4.28a1.05,1.05,0,0,1,1.06,1v1.05H28V10.38A4.88,4.88,0,0,0,23.16,5.5H8.85A4.89,4.89,0,0,0,4,10.38v2.19H12.8Z"/><path class="cls-2" d="M25.23,26.5h2.14a.67.67,0,0,0,.66-.66V23A3.82,3.82,0,0,0,25.23,26.5Z"/><path class="cls-3" d="M14.11,17.2H17.9V12.57h0v-.8H14.11V17.2Zm1.89-5a1,1,0,0,1,1,1,1,1,0,0,1-.36.76v1.29a.65.65,0,0,1-1.3,0V14a1,1,0,0,1-.36-.76A1,1,0,0,1,16,12.22Z"/><path class="cls-4" d="M8.07,26.5H23.93A5.13,5.13,0,0,1,28,21.7V13.87H19.2v3.58a1.05,1.05,0,0,1-1.06,1.05H13.86a1.06,1.06,0,0,1-1.06-1.05V13.87H4V21.7A5.13,5.13,0,0,1,8.07,26.5Z"/><path class="cls-2" d="M4.63,26.5H6.77A3.82,3.82,0,0,0,4,23v2.8A.67.67,0,0,0,4.63,26.5Z"/><path class="cls-5" d="M15.35,15.27a.65.65,0,0,0,1.3,0V14a1,1,0,0,0,.36-.76,1,1,0,0,0-2,0,1,1,0,0,0,.36.76Z"/><path class="cls-5" d="M4.63,27.8H27.37a2,2,0,0,0,2-2v-12h0V10.38A6.18,6.18,0,0,0,23.16,4.2H8.85a6.18,6.18,0,0,0-6.18,6.18v2.19h0V25.84A2,2,0,0,0,4.63,27.8Zm23.4-2a.67.67,0,0,1-.66.66H25.23A3.82,3.82,0,0,1,28,23ZM4,10.38A4.89,4.89,0,0,1,8.85,5.5H23.16A4.88,4.88,0,0,1,28,10.38v2.19H19.2V11.52a1.05,1.05,0,0,0-1.06-1H13.86a1.06,1.06,0,0,0-1.06,1v1.05H4ZM17.9,11.77v.8h0V17.2H14.11V11.77ZM4,13.87H12.8v3.58a1.06,1.06,0,0,0,1.06,1.05h4.28a1.05,1.05,0,0,0,1.06-1.05V13.87H28V21.7a5.13,5.13,0,0,0-4.1,4.8H8.07A5.13,5.13,0,0,0,4,21.7ZM4,23a3.82,3.82,0,0,1,2.8,3.46H4.63A.67.67,0,0,1,4,25.84Z"/></svg>