<svg xmlns="http://www.w3.org/2000/svg" width="184.216" height="152.999" viewBox="0 0 184.216 152.999">
    <defs>
        <style>
            .cls-2{fill:#686868}.cls-3{fill:#fff}.cls-4{fill:#390075}.cls-5{fill:#0f3756}.cls-6{opacity:.3}
        </style>
    </defs>
    <g id="Grupo_401" transform="translate(-4887.892 -86.018)">
        <g id="Grupo_380" opacity="0.25">
            <path id="Trazado_190" d="M5071.281 120.212a8.216 8.216 0 0 0-4.723-4.214l-15.813-5.518-.566-6.167a8.272 8.272 0 0 0-8.991-7.48l-23.4 2.147-22.188-7.743a8.271 8.271 0 0 0-10.533 5.084l-2.041 5.847-16.678 1.53a8.281 8.281 0 0 0-7.481 8.991l4.265 46.492-15.382 44.079a8.269 8.269 0 0 0 5.083 10.533l15.814 5.518.566 6.167a8.282 8.282 0 0 0 8.229 7.516q.378 0 .762-.035l23.4-2.147 22.188 7.742a8.265 8.265 0 0 0 10.533-5.084l2.04-5.847 16.679-1.53a8.27 8.27 0 0 0 7.48-8.991l-4.265-46.491 15.382-44.08a8.209 8.209 0 0 0-.36-6.319z" class="cls-2"/>
        </g>
        <g id="Grupo_381">
            <path id="Trazado_191" d="M5048.923 220.9l-11.8 1.08-47.97 4.4-15.076 1.382a7.081 7.081 0 0 1-7.7-6.4l-.278-3.023-4.641-50.609-5.425-59.158a7.082 7.082 0 0 1 6.4-7.7l23.09-2.117 19.5-1.789 32.25-2.957a7.082 7.082 0 0 1 7.7 6.4l.993 10.841 6.2 67.6 3.151 34.348a7.082 7.082 0 0 1-6.394 7.702z" class="cls-3"/>
            <path id="Trazado_192" d="M4973.422 227.972a7.263 7.263 0 0 1-7.219-6.6l-10.343-112.79a7.263 7.263 0 0 1 6.567-7.895l74.842-6.864a7.274 7.274 0 0 1 7.9 6.567l10.343 112.791a7.263 7.263 0 0 1-6.567 7.9l-74.842 6.863c-.231.018-.457.028-.681.028zm64.515-133.813c-.21 0-.421.009-.634.029l-74.842 6.864a6.9 6.9 0 0 0-6.238 7.5l10.343 112.791a6.9 6.9 0 0 0 7.5 6.237l74.842-6.864a6.9 6.9 0 0 0 6.237-7.5l-10.345-112.79a6.911 6.911 0 0 0-6.863-6.267z" class="cls-4"/>
        </g>
        <g id="Grupo_382">
            <path id="Trazado_193" d="M4973.421 228.981a8.272 8.272 0 0 1-8.221-7.515l-10.346-112.789a8.28 8.28 0 0 1 7.48-8.991l74.841-6.865a8.269 8.269 0 0 1 8.992 7.48l10.346 112.789a8.28 8.28 0 0 1-7.481 8.991l-74.841 6.865c-.257.024-.514.035-.77.035zm64.52-133.813c-.182 0-.365.008-.548.025l-74.841 6.865a5.894 5.894 0 0 0-5.326 6.4l10.346 112.789a5.889 5.889 0 0 0 6.4 5.326l74.841-6.865.109 1.186-.109-1.186a5.9 5.9 0 0 0 5.326-6.4l-10.346-112.788a5.89 5.89 0 0 0-5.854-5.351z" class="cls-5"/>
        </g>
        <g id="Grupo_383" class="cls-6">
            <path id="Trazado_194" d="M5052.175 178.851l-15.048 43.125-47.97 4.4-23.05-8.044-4.641-50.609 24.409-69.95a7.076 7.076 0 0 1 9.015-4.351l51.086 17.826z" class="cls-2"/>
        </g>
        <g id="Grupo_384">
            <rect id="Rectángulo_341" width="127.42" height="89.31" class="cls-3" rx="7.078" transform="rotate(-70.764 2616.525 -3376.561)"/>
            <path id="Trazado_195" d="M5022.511 234a7.255 7.255 0 0 1-2.4-.41l-70.959-24.76a7.269 7.269 0 0 1-4.463-9.247l37.316-106.94a7.269 7.269 0 0 1 9.248-4.463l70.958 24.761a7.258 7.258 0 0 1 4.463 9.247l-37.316 106.94a7.271 7.271 0 0 1-6.849 4.872zm-33.642-145.863a6.907 6.907 0 0 0-6.517 4.624L4945.036 199.7a6.9 6.9 0 0 0 4.238 8.783l70.959 24.76a6.894 6.894 0 0 0 8.782-4.239l37.317-106.94.172.061-.172-.061a6.893 6.893 0 0 0-4.239-8.782l-70.959-24.761a6.87 6.87 0 0 0-2.265-.384z" class="cls-4"/>
        </g>
        <g id="Grupo_385" opacity="0.2">
            <path id="Trazado_196" d="M5015.491 136.913a3.135 3.135 0 0 0-3.305-1.668l-33.439 5.225a1.121 1.121 0 0 0-.348.115l-83.674 43.692a8.649 8.649 0 0 0-3.663 11.671l4.874 9.334a8.636 8.636 0 0 0 11.671 3.664l83.673-43.692a1.133 1.133 0 0 0 .293-.221l23.4-24.454a3.136 3.136 0 0 0 .518-3.666z" class="cls-4"/>
        </g>
        <g id="Grupo_386" class="cls-6">
            <path id="Trazado_197" d="M5065.644 121.795l-37.317 106.94a7.076 7.076 0 0 1-9.014 4.351l-70.959-24.761a7.073 7.073 0 0 1-4.714-6.009 7.044 7.044 0 0 0 3.263 2.349l70.958 24.761a7.077 7.077 0 0 0 9.015-4.351l37.316-106.94a7.024 7.024 0 0 0 .364-3.006 7.061 7.061 0 0 1 1.088 6.666z" class="cls-2"/>
        </g>
        <g id="Grupo_387">
            <path id="Trazado_198" d="M5022.512 235.008a8.3 8.3 0 0 1-2.732-.466l-70.959-24.761a8.281 8.281 0 0 1-5.084-10.534l37.316-106.938a8.27 8.27 0 0 1 10.534-5.084l70.959 24.761a8.279 8.279 0 0 1 5.083 10.533l-37.316 106.939a8.286 8.286 0 0 1-7.8 5.55zm-33.655-145.866a5.9 5.9 0 0 0-5.555 3.952l-37.316 106.938a5.9 5.9 0 0 0 3.62 7.5l70.959 24.761a5.89 5.89 0 0 0 7.5-3.62l37.316-106.939a5.9 5.9 0 0 0-3.62-7.5l-70.961-24.76a5.894 5.894 0 0 0-1.943-.332z" class="cls-5"/>
        </g>
        <g id="Grupo_388">
            <path id="Trazado_199" d="M5021.43 128.433a12.576 12.576 0 0 1 3.117-1.2 10.005 10.005 0 0 1 3.406-.192 9.439 9.439 0 0 1 6 3.1 9.251 9.251 0 0 1 1.746 2.932 10.414 10.414 0 0 1 .625 3.263 13.167 13.167 0 0 1-1.389 6.192 17.413 17.413 0 0 1-3.733 4.879 33.509 33.509 0 0 1-4.684 3.587c-3.239 2.1-6.563 3.843-9.306 6.222q-.51.445-.994.916c-.312.311-.61.631-.888.966a8.836 8.836 0 0 0-1.34 2.152 5.991 5.991 0 0 0-.344 1.152 4.543 4.543 0 0 0-.038 1.152 3.849 3.849 0 0 0 .921 2.056 6.521 6.521 0 0 0 4.5 1.9c.215.02.429 0 .645.005s.427-.035.642-.049c.212-.031.42-.07.633-.107l.678-.157c.464-.108.943-.225 1.459-.295a4.974 4.974 0 0 1 1.645.014 3.043 3.043 0 0 1 1.583.839 3.133 3.133 0 0 1 .81 1.572 5.112 5.112 0 0 1-.487 3.148 16.535 16.535 0 0 1-1.665 2.427 7.479 7.479 0 0 0-1.306 2.3 4.981 4.981 0 0 0 1.159 4.828 5.1 5.1 0 0 0 4.886 1.328.3.3 0 0 1 .169.584 5.8 5.8 0 0 1-5.619-1.344 5.868 5.868 0 0 1-1.548-5.664 8.474 8.474 0 0 1 1.382-2.666 15.882 15.882 0 0 0 1.475-2.292 3.92 3.92 0 0 0 .308-2.376 1.815 1.815 0 0 0-.5-.9 1.687 1.687 0 0 0-.9-.432 6.318 6.318 0 0 0-2.491.354l-.7.186c-.251.054-.507.11-.761.155-.257.029-.513.071-.771.086s-.515.033-.773.021a9.236 9.236 0 0 1-3.046-.556 7.078 7.078 0 0 1-2.7-1.722 5.663 5.663 0 0 1-1.461-3 6.42 6.42 0 0 1 0-1.676 7.812 7.812 0 0 1 .41-1.579 13.367 13.367 0 0 1 3.6-4.908c2.913-2.69 6.3-4.592 9.323-6.716a30.849 30.849 0 0 0 4.208-3.444 17.225 17.225 0 0 0 1.712-1.993 12.4 12.4 0 0 0 1.292-2.19 10.2 10.2 0 0 0 .924-4.8 6.556 6.556 0 0 0-1.716-4.145 6.064 6.064 0 0 0-3.925-1.858 6.5 6.5 0 0 0-2.227.2 9.121 9.121 0 0 0-2.131.911l-.042.024a1.824 1.824 0 0 1-1.822-3.16z" class="cls-5"/>
        </g>
        <g id="Grupo_400">
            <g id="Grupo_389">
                <path id="Trazado_200" fill="#ffc107" d="M4988.569 160.241l-83.669 43.692a7.519 7.519 0 0 1-10.149-3.185l-4.874-9.334a7.521 7.521 0 0 1 3.186-10.149l83.673-43.692.851-.135 25.273-3.948 7.316-1.143a2.049 2.049 0 0 1 1.8 3.44l-5.119 5.35-17.683 18.483z"/>
            </g>
            <g id="Grupo_390">
                <path id="Trazado_201" fill="#c9003d" d="M4913.063 199.669l-8.167 4.264a7.519 7.519 0 0 1-10.149-3.185l-4.874-9.334a7.521 7.521 0 0 1 3.186-10.149l8.167-4.265z"/>
            </g>
            <g id="Grupo_391">
                <path id="Rectángulo_342" fill="#d7dcf0" d="M0 0H8.086V25.573H0z" transform="rotate(-27.573 2811.287 -9898.767)"/>
                <path id="Trazado_202" d="M4912.986 199.915l-.084-.162-11.922-22.83 7.491-3.911.084.161L4920.477 196zm-11.513-22.838l11.668 22.346 6.843-3.574-11.668-22.349z" class="cls-4"/>
            </g>
            <g id="Grupo_392">
                <path id="Trazado_203" fill="#ffdc9c" d="M4989.166 159.62c-1.95-2.189-5.484.165-7.315-2.625-1.809-2.92 2.1-5.183.593-7.98-1.434-2.836-5.525-.921-6.887-4.074-1.244-3.1 2.708-4.652 2.026-7.5l25.273-3.948 7.316-1.143a2.049 2.049 0 0 1 1.8 3.44l-5.119 5.35z"/>
                <path id="Trazado_204" d="M4989.161 159.889l-.131-.148c-.862-.968-2.055-.993-3.319-1.02-1.469-.032-2.988-.064-4.012-1.626-.986-1.59-.373-2.982.22-4.327.542-1.229 1.053-2.389.365-3.667-.657-1.3-1.9-1.543-3.22-1.8-1.443-.282-2.935-.574-3.675-2.287-.7-1.737.144-3 .958-4.226.7-1.053 1.36-2.046 1.058-3.306l-.046-.193 32.784-5.121a2.232 2.232 0 0 1 1.957 3.746zm-11.361-22.3a4.651 4.651 0 0 1-1.15 3.4c-.8 1.2-1.549 2.33-.924 3.885.662 1.532 2 1.793 3.408 2.07 1.346.263 2.738.535 3.473 1.989.771 1.431.2 2.728-.354 3.983-.58 1.317-1.128 2.561-.247 3.984.917 1.4 2.275 1.426 3.713 1.457a4.661 4.661 0 0 1 3.447 1l22.67-23.694a1.867 1.867 0 0 0-1.636-3.134z" class="cls-4"/>
            </g>
            <g id="Grupo_393" class="cls-6">
                <path id="Trazado_205" d="M4988.569 160.241l-83.669 43.692a7.521 7.521 0 0 1-10.149-3.185l-3.133-6a7.521 7.521 0 0 0 10.149 3.186l82.91-43.294a5.25 5.25 0 0 0 1.359-1.02l26.486-19.549a1.992 1.992 0 0 1-.55 1.717l-5.119 5.35-17.683 18.483z" class="cls-4"/>
            </g>
            <g id="Grupo_394" opacity="0.55">
                <path id="Trazado_206" d="M5012.426 135.056a2.066 2.066 0 0 0-.862-.042l-7.315 1.143-25.274 3.948-.85.134-83.673 43.693a7.518 7.518 0 0 0-3.186 10.148l-1.393-2.666a7.521 7.521 0 0 1 3.186-10.149l83.673-43.692.851-.135 25.273-3.948 7.316-1.143a2.057 2.057 0 0 1 2.254 2.709z" class="cls-3"/>
            </g>
            <g id="Grupo_395">
                <path id="Trazado_207" d="M4901.429 205.915a8.659 8.659 0 0 1-7.682-4.645l-4.874-9.334a8.66 8.66 0 0 1 3.664-11.671l83.673-43.693a1.156 1.156 0 0 1 .348-.114l33.442-5.226a3.178 3.178 0 0 1 2.787 5.335l-23.4 24.454a1.1 1.1 0 0 1-.292.22l-83.674 43.693a8.606 8.606 0 0 1-3.992.981zm75.661-67.256l-83.509 43.606a6.4 6.4 0 0 0-2.708 8.626l4.875 9.334a6.4 6.4 0 0 0 8.626 2.708l83.508-43.606 23.271-24.32a.921.921 0 0 0-.808-1.545zm11.479 21.582z" class="cls-5"/>
            </g>
            <g id="Grupo_396">
                <path id="Trazado_208" d="M4989.166 160.748a1.125 1.125 0 0 1-.843-.378c-.559-.628-1.364-.677-2.632-.7-1.553-.033-3.486-.074-4.783-2.052-1.261-2.035-.481-3.8.146-5.227.553-1.256.844-2.007.4-2.837-.439-.868-1.222-1.058-2.569-1.321-1.525-.3-3.423-.67-4.361-2.841-.893-2.222.178-3.832 1.038-5.125.7-1.056 1.122-1.744.927-2.562a1.128 1.128 0 1 1 2.194-.525c.435 1.815-.5 3.213-1.242 4.336-.813 1.223-1.253 1.966-.834 3.008.433 1 1.27 1.212 2.712 1.494 1.422.278 3.191.625 4.135 2.491.979 1.816.252 3.466-.332 4.792-.593 1.344-.9 2.151-.309 3.1.6.915 1.461.978 2.93 1.009 1.348.03 3.027.066 4.268 1.46a1.128 1.128 0 0 1-.842 1.878z" class="cls-5"/>
            </g>
            <g id="Grupo_397">
                <path id="Trazado_209" d="M5006.849 141.137a9.995 9.995 0 0 1-3.993-7.647l7.316-1.143a2.049 2.049 0 0 1 1.8 3.44z" class="cls-5"/>
            </g>
            <g id="Grupo_398">
                <path id="Trazado_210" d="M4913.063 200.8a1.112 1.112 0 0 1-.337-.052 1.128 1.128 0 0 1-.663-.554l-11.837-22.669a1.128 1.128 0 0 1 .474-1.525l7.167-3.743a1.13 1.13 0 0 1 1.523.478l11.837 22.669a1.128 1.128 0 0 1-.478 1.522l-7.167 3.743a1.129 1.129 0 0 1-.519.131zm-10.314-23.319l10.792 20.668 5.167-2.7-10.792-20.668z" class="cls-5"/>
            </g>
            <g id="Grupo_399">
                <path id="Trazado_211" d="M5006.848 142.265a1.124 1.124 0 0 1-.694-.239 11.132 11.132 0 0 1-4.424-8.473 1.128 1.128 0 1 1 2.253-.125 8.849 8.849 0 0 0 3.561 6.82 1.129 1.129 0 0 1-.7 2.017z" class="cls-5"/>
            </g>
        </g>
    </g>
</svg>
