<!-- Generated by IcoMoon.io -->
<svg version="1.1" xmlns="http://www.w3.org/2000/svg" width="1024" height="1024" viewBox="0 0 1024 1024">
<title></title>
<g id="icomoon-ignore">
</g>
<path fill="#003dc9" d="M640 18.56h-448c-37.669 1.413-67.688 32.216-67.84 70.065v846.735c0.181 38.631 31.449 69.899 70.063 70.080h635.537c38.631-0.181 69.899-31.449 70.080-70.063v-655.057z"></path>
<path fill="#2f61c7" d="M641.6 18.56v192c0.181 38.631 31.449 69.899 70.063 70.080h188.177z"></path>
<path fill="#fff" d="M577.6 643.2h-28.16l-21.76-55.36-18.88-55.68-18.24 56-21.44 55.040h-28.16l-64-176.32h37.44l41.6 128 42.88-128h21.76l43.84 128 40.32-128h35.2z"></path>
</svg>
