<!-- Generated by IcoMoon.io -->
<svg version="1.1" xmlns="http://www.w3.org/2000/svg" width="1024" height="1024" viewBox="0 0 1024 1024">
<title></title>
<g id="icomoon-ignore">
</g>
<path fill="#c9003d" d="M640 18.56h-448c-37.669 1.413-67.688 32.216-67.84 70.065v846.735c0.181 38.631 31.449 69.899 70.063 70.080h635.537c38.631-0.181 69.899-31.449 70.080-70.063v-655.057z"></path>
<path fill="#e14262" d="M641.6 18.56v192c0.181 38.631 31.449 69.899 70.063 70.080h188.177z"></path>
<path fill="#fff" d="M356.16 591.36h-49.92v51.84h-32v-176.32h82.88c4.332-1.046 9.305-1.645 14.418-1.645 35.346 0 64 28.654 64 64s-28.654 64-64 64c-5.46 0-10.76-0.684-15.82-1.97l0.443 0.095zM306.24 559.36h49.92c2.136 0.508 4.589 0.8 7.111 0.8 17.673 0 32-14.327 32-32s-14.327-32-32-32c-2.521 0-4.974 0.292-7.327 0.843l0.217-0.043h-49.92z"></path>
<path fill="#fff" d="M598.72 553.6c0.161 1.942 0.253 4.203 0.253 6.486 0 45.95-37.25 83.2-83.2 83.2-1.327 0-2.647-0.031-3.959-0.093l0.185 0.007h-70.72v-176.32h70.72c1.074-0.050 2.332-0.078 3.598-0.078 45.95 0 83.2 37.25 83.2 83.2 0 1.265-0.028 2.524-0.084 3.776l0.006-0.178zM474.24 611.2h37.76c0.948 0.061 2.057 0.096 3.173 0.096 28.984 0 52.48-23.496 52.48-52.48 0-1.95-0.106-3.875-0.314-5.77l0.021 0.234c0.042-0.789 0.067-1.713 0.067-2.643 0-28.984-23.496-52.48-52.48-52.48-1.037 0-2.066 0.030-3.088 0.089l0.141-0.007h-37.76z"></path>
<path fill="#fff" d="M625.92 643.2v-176.32h128v32h-94.72v48.32h88.64v32h-88.64v64z"></path>
</svg>
