<?xml version="1.0" encoding="utf-8"?>
<!-- Generator: Adobe Illustrator 24.3.0, SVG Export Plug-In . SVG Version: 6.00 Build 0)  -->
<svg version="1.1" id="Capa_1" xmlns="http://www.w3.org/2000/svg" xmlns:xlink="http://www.w3.org/1999/xlink" x="0px" y="0px"
	 viewBox="0 0 32 32" style="enable-background:new 0 0 32 32;" xml:space="preserve">
<style type="text/css">
	.st0{fill:#8C00C9;}
	.st1{fill:#DA94FF;}
	.st2{fill:#FFFFFF;}
</style>
<path class="st0" d="M22,9c-1.2,0-2.1-0.9-2.1-2.1V1.2l0,0H6.5c-1.2,0-2.1,0.9-2.1,2.1v25.4c0,1.2,0.9,2.1,2.1,2.1h19.1
	c1.2,0,2.1-0.9,2.1-2.1V9.1L22,9L22,9z"/>
<path class="st1" d="M22,9h5.6l-7.8-7.8v5.7C19.9,8.1,20.9,9,22,9z"/>
<polygon class="st2" points="-13.1,15.6 -12.1,15.6 -12.1,13.6 -9.5,13.6 -9.5,12.7 -12.1,12.7 -12.1,11.3 -9.3,11.3 -9.3,10.3 
	-13.1,10.3 "/>
<g>
	<circle class="st2" cx="8.1" cy="7.1" r="0.5"/>
	<path class="st2" d="M8.1,4.9c0.1,0,0.3-0.1,0.3-0.3c0-0.1-0.1-0.3-0.3-0.3c-0.1,0-0.3,0.1-0.3,0.3C7.8,4.8,7.9,4.9,8.1,4.9z"/>
	<path class="st2" d="M9.2,3.2L9.2,3.2C9.1,3.1,8.7,2.7,8.1,2.7C7.4,2.7,7,3.1,7,3.1L7,3.2l0.3,1C7.1,4.5,7,7,7,7.1
		c0,0.6,0.5,1.1,1.1,1.1s1.1-0.5,1.1-1.1c0,0-0.1-2.3-0.3-2.8L9.2,3.2z M8.1,3c0.4,0,0.6,0.2,0.8,0.3L8.7,3.9
		C8.5,3.8,8.4,3.7,8.1,3.7c-0.3,0-0.4,0.1-0.6,0.2L7.3,3.3C7.4,3.2,7.7,3,8.1,3z M8.1,7.8c-0.4,0-0.8-0.3-0.8-0.8
		c0-0.3,0.2-2.5,0.2-2.7C7.7,4.1,7.9,4,8.1,4c0.2,0,0.4,0.1,0.5,0.3c0.1,0.2,0.2,2.5,0.2,2.7C8.9,7.5,8.5,7.8,8.1,7.8z"/>
</g>
<g>
	<path class="st2" d="M12.9,18.7h-1.2l-1.5-1.8h-1v1.8h-1v-5.3c0.8,0,1.7,0,2.5,0c1.2,0,1.9,0.8,1.9,1.8c0,0.7-0.3,1.5-1.3,1.7
		L12.9,18.7L12.9,18.7z M9.2,14.3V16h1.5c0.6,0,0.9-0.4,0.9-0.8c0-0.4-0.3-0.8-0.9-0.8H9.2z"/>
	<path class="st2" d="M17.1,17.7h-2.8l-0.5,1h-1.1l2.4-5.3h1.1l2.4,5.3h-1.1L17.1,17.7z M15.7,14.5l-1,2.3h2L15.7,14.5z"/>
	<path class="st2" d="M23.8,18.7h-1.2L21,16.9h-1v1.8h-1v-5.3c0.8,0,1.7,0,2.5,0c1.2,0,1.9,0.8,1.9,1.8c0,0.7-0.3,1.5-1.3,1.7
		L23.8,18.7L23.8,18.7z M20.1,14.3V16h1.5c0.6,0,0.9-0.4,0.9-0.8c0-0.4-0.3-0.8-0.9-0.8H20.1z"/>
</g>
</svg>
