<svg id="Capa_1" data-name="Capa 1" xmlns="http://www.w3.org/2000/svg" viewBox="0 0 32 32"><defs><style>.cls-1{opacity:0.5;}.cls-2{opacity:0.7;}.cls-3{fill:#9c9b9b;}</style></defs><g class="cls-1"><g class="cls-2"><path class="cls-3" d="M16.92,4a.11.11,0,0,1,0-.08.12.12,0,0,1,.16,0l8.23,8.23a.11.11,0,0,1,0,.08.11.11,0,0,1-.11.12H17.83a.92.92,0,0,1-.91-.92Z"/><path class="cls-3" d="M26.07,25.16a3.66,3.66,0,0,1-3.66,3.66H9.59a3.66,3.66,0,0,1-3.66-3.66V6.84A3.66,3.66,0,0,1,9.59,3.18h5.27a.22.22,0,0,1,.22.23v8a2.75,2.75,0,0,0,2.75,2.75h8a.23.23,0,0,1,.23.23Z"/></g><rect class="cls-3" x="-4.27" y="15.13" width="40.53" height="1.75" rx="0.87" transform="translate(16 -6.63) rotate(45)"/></g></svg>