<svg id="Capa_1" data-name="Capa 1" xmlns="http://www.w3.org/2000/svg" viewBox="0 0 32 32"><defs><style>.cls-1{fill:#eaeaea;}.cls-2{fill:#686868;}</style></defs><circle class="cls-1" cx="16" cy="16" r="13.51"/><path class="cls-2" d="M21.54,12.47H19.68a.48.48,0,0,1-.3-.15L18.56,11l0-.06a1.39,1.39,0,0,0-1.07-.51h-2.9a1.39,1.39,0,0,0-1.07.51l0,.06-.82,1.29a.43.43,0,0,1-.27.15v-.25a.5.5,0,0,0-.51-.5h-.75a.5.5,0,0,0-.51.5v.25h-.12A1.51,1.51,0,0,0,9,14V20a1.51,1.51,0,0,0,1.51,1.51H21.54A1.51,1.51,0,0,0,23.05,20V14A1.51,1.51,0,0,0,21.54,12.47ZM22.05,20a.5.5,0,0,1-.51.5H10.46A.5.5,0,0,1,10,20V14a.51.51,0,0,1,.51-.5h1.89A1.39,1.39,0,0,0,13.41,13l0-.06.81-1.29a.4.4,0,0,1,.29-.13h2.9a.4.4,0,0,1,.29.13l.81,1.29,0,.06a1.45,1.45,0,0,0,1.09.53h1.86a.51.51,0,0,1,.51.5Z"/><path class="cls-2" d="M17.28,18.06a2,2,0,0,1-1.28.46h0A2,2,0,0,1,14.05,17h.06a.51.51,0,0,0,.36-.15.51.51,0,0,0,0-.71l-.63-.63a.51.51,0,0,0-.72,0l-.63.63A.5.5,0,0,0,13,17a3,3,0,0,0,3,2.55h0a3.05,3.05,0,0,0,1.92-.69.5.5,0,1,0-.64-.78Z"/><path class="cls-2" d="M19,16a3,3,0,0,0-3-2.55h0a3.05,3.05,0,0,0-1.92.69.5.5,0,0,0,.64.78A2,2,0,0,1,16,14.49h0a2,2,0,0,1,1.43.59A2,2,0,0,1,18,16a.52.52,0,0,0-.42.15.51.51,0,0,0,0,.71l.63.63a.51.51,0,0,0,.72,0l.63-.63a.51.51,0,0,0,0-.71A.53.53,0,0,0,19,16Z"/></svg>