<svg id="Capa_1" data-name="Capa 1" xmlns="http://www.w3.org/2000/svg" viewBox="0 0 32 32"><defs><style>.cls-1{fill:#686868;}</style></defs><path class="cls-1" d="M28.24,8.06,25.72,6.94a1.31,1.31,0,0,1-.65-.66L23.94,3.76A1.28,1.28,0,0,0,22.63,3l-2.75.29A1.35,1.35,0,0,1,19,3.05L16.76,1.43a1.29,1.29,0,0,0-1.52,0L13,3.05a1.37,1.37,0,0,1-.9.24L9.37,3a1.28,1.28,0,0,0-1.31.76L6.94,6.28a1.31,1.31,0,0,1-.66.65L3.76,8.06A1.28,1.28,0,0,0,3,9.37l.29,2.75a1.35,1.35,0,0,1-.24.89L1.43,15.24a1.29,1.29,0,0,0,0,1.52L3.05,19a1.37,1.37,0,0,1,.24.9L3,22.63a1.28,1.28,0,0,0,.76,1.31l2.52,1.12a1.31,1.31,0,0,1,.65.66l1.13,2.52A1.28,1.28,0,0,0,9.37,29l2.75-.29A1.35,1.35,0,0,1,13,29l2.23,1.62a1.29,1.29,0,0,0,1.52,0L19,29a1.37,1.37,0,0,1,.9-.24l2.74.29a1.28,1.28,0,0,0,1.31-.76l1.12-2.52a1.31,1.31,0,0,1,.66-.65l2.52-1.13A1.28,1.28,0,0,0,29,22.63l-.29-2.75A1.35,1.35,0,0,1,29,19l1.62-2.23a1.29,1.29,0,0,0,0-1.52L29,13a1.37,1.37,0,0,1-.24-.9L29,9.37A1.28,1.28,0,0,0,28.24,8.06ZM13.89,21.14a1.3,1.3,0,0,1-1.83,0L8.7,17.77l1.42-1.42,1.94,1.93a1.29,1.29,0,0,0,1.83,0l7.64-7.64L23,12.07Z"/></svg>